<svg id="Layer_1" data-name="Layer 1" xmlns="http://www.w3.org/2000/svg" viewBox="0 0 180 180"><defs><style>.cls-1{fill:#4d4d4d;}.cls-2{fill:#999;}</style></defs><path class="cls-1" d="M180,90A90,90,0,1,0,32.66,159.37C32.65,159.32,29,123,49,126c13,1.94,17.1-8.71,18.41-16.45a38,38,0,1,1,48.12-2.4C116.76,114.91,120.82,126,134,124c18.41-2.76,16.77,27.83,16.4,32.71A89.76,89.76,0,0,0,180,90Z"/><path class="cls-2" d="M134,124c-13.19,2-17.25-9.09-18.48-16.85a38,38,0,1,0-48.12,2.4C66.1,117.29,62,127.94,49,126c-20-3-16.35,33.32-16.34,33.37A90.15,90.15,0,0,0,115,176.48l2.31-.7a89.81,89.81,0,0,0,33.1-19.07C150.78,151.83,152.42,121.24,134,124Z"/></svg>