<svg id="Layer_1" data-name="Layer 1" xmlns="http://www.w3.org/2000/svg" viewBox="0 0 180 180"><defs><style>.cls-1{fill:#555a80;}.cls-2{opacity:0;}</style></defs><g id="top_buttom"><path class="cls-1" d="M168,0H12A12,12,0,0,0,0,12V168a12,12,0,0,0,12,12H168a12,12,0,0,0,12-12V12A12,12,0,0,0,168,0Zm7,163a12,12,0,0,1-12,12H17A12,12,0,0,1,5,163V17A12,12,0,0,1,17,5H163a12,12,0,0,1,12,12Z"/><g class="cls-2"><rect class="cls-1" x="5" y="5" width="170" height="170" rx="12"/></g></g><path class="cls-1" d="M141.31,76.33l-30.58-36c-21.28-24.67-41.71,0-41.71,0l-30.59,36a12,12,0,0,0,18.3,15.54L78.34,66.43A11.46,11.46,0,0,0,78,69.19v81.62a12,12,0,0,0,12,12h0a12,12,0,0,0,12-12V69.19a11.33,11.33,0,0,0-.24-2.34l21.26,25a12,12,0,1,0,18.29-15.54Z"/></svg>