<?xml version="1.0" standalone="no"?>
<!DOCTYPE svg PUBLIC "-//W3C//DTD SVG 20010904//EN"
 "http://www.w3.org/TR/2001/REC-SVG-20010904/DTD/svg10.dtd">
<svg version="1.0" xmlns="http://www.w3.org/2000/svg"
 width="700.000000pt" height="700.000000pt" viewBox="0 0 700.000000 700.000000"
 preserveAspectRatio="xMidYMid meet">
<metadata>
Created by potrace 1.14, written by Peter Selinger 2001-2017
</metadata>
<g transform="translate(0.000000,700.000000) scale(0.100000,-0.100000)"
fill="#000000" stroke="none">
<path d="M490 6112 c-80 -7 -125 -89 -81 -150 22 -31 107 -89 196 -135 40 -20
51 -31 53 -51 5 -63 82 -154 158 -188 26 -11 83 -23 129 -27 68 -7 93 -14 132
-39 111 -70 194 -103 513 -203 275 -85 563 -229 600 -300 14 -26 6 -37 -42
-59 -39 -17 -108 -19 -192 -6 -20 3 -53 9 -73 12 -21 3 -54 9 -73 14 -45 11
-122 19 -230 25 -161 10 -249 28 -401 86 -58 21 -136 46 -173 53 -37 8 -78 21
-90 30 -13 8 -55 62 -94 119 -125 184 -234 248 -284 168 -12 -20 -13 -20 -43
-1 -124 75 -256 130 -315 130 -63 0 -124 -62 -114 -116 13 -73 175 -236 446
-447 47 -37 94 -80 105 -96 100 -155 368 -304 783 -434 143 -45 147 -46 266
-43 162 4 268 -18 392 -79 99 -49 212 -147 246 -212 9 -18 37 -47 64 -64 112
-77 165 -169 169 -296 2 -102 -19 -184 -83 -311 -50 -99 -70 -120 -184 -189
-181 -110 -376 -191 -560 -233 -78 -18 -126 -45 -184 -104 -122 -122 -231
-340 -391 -776 -202 -550 -212 -571 -282 -594 -54 -18 -175 -23 -273 -11 -69
8 -76 9 -159 26 -29 6 -56 7 -61 2 -16 -19 -43 -130 -42 -177 2 -193 159 -327
432 -367 67 -9 83 -15 91 -33 14 -29 82 -70 149 -90 33 -10 112 -19 197 -23
l143 -6 43 44 c35 35 50 61 70 124 14 44 28 100 32 125 4 24 8 47 10 50 2 3 6
26 10 50 4 25 8 50 9 55 2 6 6 32 11 59 7 43 42 99 86 136 15 13 121 163 166
236 110 175 283 496 330 611 27 66 80 102 191 131 96 26 129 30 272 37 217 11
248 15 345 44 63 20 228 57 293 67 20 3 48 7 62 10 115 19 482 27 565 12 34
-7 110 -25 230 -57 212 -57 735 -293 1073 -485 45 -26 104 -58 130 -73 26 -14
94 -54 151 -89 l104 -63 39 34 c42 35 85 48 132 39 16 -2 34 -6 40 -7 6 -1 89
-41 183 -89 156 -78 208 -108 253 -145 61 -50 208 -154 282 -198 224 -135 329
-130 444 20 47 60 64 100 64 146 0 130 -151 270 -455 423 -134 68 -142 71
-200 67 -115 -7 -175 -4 -219 13 -70 27 -80 45 -81 140 0 73 -4 89 -34 148
-43 87 -74 115 -130 122 -99 12 -140 19 -241 42 -184 43 -349 116 -420 187
-42 42 -49 45 -113 51 -113 10 -271 47 -362 85 -254 105 -400 225 -670 550
-39 46 -171 170 -250 234 -89 72 -144 128 -199 202 -21 28 -59 73 -85 100
-134 142 -203 289 -291 616 -56 208 -83 286 -142 404 -51 103 -110 188 -160
231 -28 23 -29 27 -22 77 55 382 -174 556 -641 486 -122 -18 -130 -24 -132
-88 -6 -148 -62 -185 -196 -130 -128 53 -554 164 -762 199 -55 9 -90 23 -164
67 -188 112 -343 158 -491 145z"/>
</g>
</svg>
